#N canvas 31 18 1161 890 12;
#X msg 35 97 \; pd dsp \$1;
#X obj 35 62 tgl 15 0 empty empty empty 17 7 0 10 -204786 -1 -1 1 1
;
#X text 28 29 START/STOP DSP;
#X floatatom 34 207 5 0 0 0 - - -;
#N canvas 1044 72 1037 827 oscReceive 0;
#X obj 55 184 netreceive -u -b;
#X msg 78 143 listen 0;
#X text 152 143 stop listening;
#X text 64 58 packets from network;
#X text 173 177 UDP packets \, binary output, f 13;
#X obj 45 314 print;
#X obj 45 272 oscparse;
#X text 150 114 listen on port 8000;
#X obj 177 269 oscparse;
#X obj 177 293 list trim;
#X floatatom 42 431 5 0 0 0 - - -;
#X text 241 267 Parse the OSC message;
#X obj 175 318 route unity;
#X msg 66 115 listen 8000;
#X obj 66 84 loadbang;
#X floatatom 172 433 5 0 0 0 - - -;
#X floatatom 276 431 5 0 0 0 - - -;
#X floatatom 374 431 5 0 0 0 - - -;
#X floatatom 469 429 5 0 0 0 - - -;
#X floatatom 573 431 5 0 0 0 - - -;
#X obj 41 408 route startseq;
#X obj 42 458 s startseq;
#X obj 162 409 route settempo;
#X obj 172 460 s settempo;
#X obj 276 458 s coin;
#X obj 275 408 route coin;
#X obj 373 408 route synth;
#X obj 374 458 s synth;
#X obj 468 406 route kick;
#X obj 469 456 s kick;
#X obj 572 408 route snare;
#X obj 575 458 s snare;
#X floatatom 673 426 5 0 0 0 - - -;
#X floatatom 777 428 5 0 0 0 - - -;
#X obj 672 403 route lowcave;
#X obj 673 453 s lowcave;
#X obj 776 405 route delaycave;
#X obj 779 455 s delaycave;
#X floatatom 51 536 5 0 0 0 - - -;
#X obj 50 513 route wall;
#X obj 53 563 s wall;
#X floatatom 160 541 5 0 0 0 - - -;
#X obj 159 518 route col_speed;
#X obj 162 568 s col_speed;
#X connect 0 0 6 0;
#X connect 0 0 8 0;
#X connect 1 0 0 0;
#X connect 6 0 5 0;
#X connect 8 0 9 0;
#X connect 9 0 12 0;
#X connect 10 0 21 0;
#X connect 12 0 20 0;
#X connect 12 0 22 0;
#X connect 12 0 25 0;
#X connect 12 0 26 0;
#X connect 12 0 28 0;
#X connect 12 0 30 0;
#X connect 12 0 34 0;
#X connect 12 0 36 0;
#X connect 12 0 39 0;
#X connect 12 0 42 0;
#X connect 13 0 0 0;
#X connect 14 0 13 0;
#X connect 15 0 23 0;
#X connect 16 0 24 0;
#X connect 17 0 27 0;
#X connect 18 0 29 0;
#X connect 19 0 31 0;
#X connect 20 0 10 0;
#X connect 22 0 15 0;
#X connect 25 0 16 0;
#X connect 26 0 17 0;
#X connect 28 0 18 0;
#X connect 30 0 19 0;
#X connect 32 0 35 0;
#X connect 33 0 37 0;
#X connect 34 0 32 0;
#X connect 36 0 33 0;
#X connect 38 0 40 0;
#X connect 39 0 38 0;
#X connect 41 0 43 0;
#X connect 42 0 41 0;
#X restore 35 163 pd oscReceive;
#X obj 34 239 oscformat PD message;
#X msg 93 207 set PD message;
#N canvas 505 105 702 539 oscSend 0;
#X msg 158 207 disconnect;
#X obj 61 253 netsend -u -b;
#X obj 59 55 list prepend send;
#X obj 59 80 list trim;
#X msg 150 175 connect 127.0.0.1 8001;
#X obj 59 29 r oscOut;
#X text 301 163 send to port 8001;
#X msg 147 148 connect localhost 8001;
#X obj 147 108 loadbang;
#X connect 0 0 1 0;
#X connect 2 0 3 0;
#X connect 3 0 1 0;
#X connect 4 0 1 0;
#X connect 5 0 2 0;
#X connect 7 0 1 0;
#X connect 8 0 7 0;
#X restore 35 139 pd oscSend;
#X obj 34 274 s oscOut;
#X text 316 29 MAIN/TEMPO CONTROL;
#X obj 301 153 metro;
#X obj 264 125 tgl 15 0 empty empty empty 17 7 0 10 -204786 -1 -1 0
1;
#X text 273 59 Trigger main background music;
#X floatatom 360 135 5 0 0 0 - - -;
#X obj 444 84 loadbang;
#X obj 301 187 s tempo;
#X text 419 249 BACKGROUND MUSIC;
#X obj 306 303 r synth;
#X obj 262 84 r startseq;
#X obj 360 84 r settempo;
#N canvas 566 108 1240 849 synth 0;
#X obj 86 261 f;
#X obj 129 251 + 1;
#X obj 123 280 mod 64;
#X obj 213 503 inlet;
#X obj 65 231 r tempo;
#X obj 87 336 hradio 15 1 0 59 empty empty empty 0 -8 0 10 -262144
-1 -1 40;
#N canvas 0 50 450 250 (subpatch) 0;
#X array synthpitches 64 float 3;
#A 0 73 75 70 78 75 73 0 75 72 0 72 68 0 72 73 68 71 63 66 71 63 66
71 63 66 73 65 68 73 66 70 78 77 75 70 78 75 73 0 75 72 0 72 68 0 72
73 68 71 63 66 71 63 66 71 63 66 73 65 68 73 0 68 70;
#X coords 0 127 64 0 200 127 1 0 0;
#X restore 792 27 graph;
#X obj 766 615 array set synthpitches;
#X obj 87 380 array get synthpitches;
#X floatatom 88 413 5 0 0 0 - - -;
#N canvas 1030 12 796 1276 synthsound 0;
#X obj 74 46 inlet;
#X obj 99 437 inlet;
#X obj 75 91 mtof;
#X floatatom 70 126 5 0 0 0 - - -;
#X obj 198 205 vline~;
#X obj 106 281 *~;
#X obj 58 464 *~;
#X obj 320 375 +~ 1;
#X obj 318 411 *~ 50;
#N canvas 0 50 450 250 (subpatch) 0;
#X array oscwave 100 float 1;
#A 0 0.599999 0.24 0.23 0.22 0.2 0.18 0.18 0.16 0.15 0.14 0.13 0.12
0.0999997 0.0999997 0.0999997 0.0999997 0.0999997 0.0799997 0.0699997
0.0599997 0.0499997 0.0399997 0.0399997 0.0299997 0.0199997 0.00999975
-2.38419e-007 -2.38419e-007 -2.38419e-007 -0.0066669 0.2 -0.0200002
-0.0200002 -0.0200002 -0.0266669 -0.0333335 -0.0400002 -0.0500002 -0.0600002
-0.0666668 -0.0733335 -0.0800002 -0.0900002 -0.1 -0.11 -0.12 -0.12
-0.12 -0.133333 -0.146667 -0.16 -0.16 -0.16 -0.16 -0.17 -0.18 -0.18
-0.18 -0.18 -0.186667 -0.193333 -0.2 -0.21 -0.22 -0.22 -0.22 -0.22
-0.22 -0.225 -0.23 -0.235 -0.24 -0.246667 -0.253333 -0.26 -0.26 -0.26
-0.26 -0.26 -0.27 -0.28 -0.29 -0.3 -0.3 -0.3 -0.3 -0.3 -0.3 -0.308
-0.316 -0.324 -0.332 -0.34 -0.345 -0.35 -0.355 -0.36 -0.366667 -0.373333
-0.38;
#X coords 0 -1 100 1 100 100 1 0 0;
#X restore 355 278 graph;
#X obj 48 510 dac~;
#X obj 41 188 osc~;
#X obj 310 438 tabread~ oscwave;
#X obj 55 248 lop~;
#X floatatom 100 216 5 0 0 0 - - -;
#X obj 178 132 r lowpass;
#X obj 167 746 dac~;
#X floatatom 164 650 5 0 0 0 - - -;
#X obj 167 623 hsl 128 15 0 127 0 0 empty empty empty -2 -8 0 10 -262144
-1 -1 9500 1;
#X obj 212 710 hsl 128 15 0 0.5 0 0 empty empty empty -2 -8 0 10 -262144
-1 -1 10160 1;
#X obj 165 709 *~;
#X obj 166 589 delwrite~ del-oscwave 5000;
#X obj 164 679 delread~ del-oscwave 0;
#X obj 462 599 r delay;
#X msg 387 715 0;
#X msg 450 723 0.4;
#X obj 420 679 moses 5;
#X msg 194 172 0.2 50 \, 0 750 250;
#X connect 0 0 2 0;
#X connect 1 0 6 1;
#X connect 2 0 3 0;
#X connect 3 0 11 0;
#X connect 3 0 27 0;
#X connect 4 0 5 1;
#X connect 5 0 7 0;
#X connect 6 0 10 0;
#X connect 6 0 10 1;
#X connect 6 0 21 0;
#X connect 7 0 8 0;
#X connect 8 0 12 0;
#X connect 11 0 13 0;
#X connect 12 0 6 0;
#X connect 13 0 5 0;
#X connect 14 0 13 1;
#X connect 15 0 14 0;
#X connect 17 0 22 0;
#X connect 18 0 17 0;
#X connect 19 0 20 1;
#X connect 20 0 16 0;
#X connect 20 0 16 1;
#X connect 22 0 20 0;
#X connect 23 0 18 0;
#X connect 23 0 26 0;
#X connect 24 0 19 0;
#X connect 25 0 19 0;
#X connect 26 0 24 0;
#X connect 26 1 25 0;
#X connect 27 0 4 0;
#X restore 125 546 pd synthsound;
#X msg 399 136 0;
#X obj 399 101 r reset;
#X obj 81 471 spigot;
#X msg 687 180 73 75 70 78 75 73 0 75 72 0 72 68 0 72 73 68 71 63 66
71 63 66 71 63 66 73 65 68 73 66 70 78 77 75 70 78 75 73 0 75 72 0
72 68 0 72 73 68 71 63 66 71 63 66 71 63 66 73 65 68 73 0 68 70;
#X msg 677 454 63 63 65 65 66 0 66 69 69 69 67 66 66 67 0 67 71 0 71
71 69 67 69 69 67 0 71 71 69 65 67 65 65 67 0 67 71 71 71 69 67 67
65 0 67 67 69 71 73 0 73 71 0 71 72 69 0 69 66 65 0 65;
#X connect 0 0 1 0;
#X connect 0 0 5 0;
#X connect 1 0 2 0;
#X connect 2 0 0 1;
#X connect 3 0 10 1;
#X connect 4 0 0 0;
#X connect 5 0 8 0;
#X connect 8 0 9 0;
#X connect 9 0 13 1;
#X connect 9 0 13 0;
#X connect 11 0 0 0;
#X connect 12 0 11 0;
#X connect 13 0 10 0;
#X connect 14 0 7 0;
#X connect 15 0 7 0;
#X restore 306 503 pd synth;
#X floatatom 306 332 5 0 1.25 0 - - -;
#X obj 535 85 bng 15 250 50 0 empty empty empty 17 7 0 10 -262144 -1
-1;
#X obj 535 120 s reset;
#X obj 306 355 vsl 15 128 0 1.25 0 0 empty empty empty 0 -9 0 10 -261234
-1 -1 8660 1;
#X obj 227 283 loadbang;
#X msg 227 314 1;
#X msg 261 314 0;
#X obj 623 165 s lowpass;
#X obj 623 84 r lowcave;
#X floatatom 623 140 5 0 0 0 - - -;
#X msg 742 121 10000;
#X msg 695 121 75;
#X obj 795 84 r delaycave;
#X floatatom 795 141 5 0 0 0 - - -;
#X obj 795 164 s delay;
#X msg 920 122 0;
#X msg 878 122 95;
#X obj 711 84 loadbang;
#X text 96 412 Use sliders to adjust volume;
#X text 598 54 turn on/off lowpass filter;
#X text 796 54 turn on/off delay;
#X text 361 158 Adjust tempo;
#X msg 444 116 180;
#X connect 1 0 0 0;
#X connect 3 0 5 0;
#X connect 5 0 8 0;
#X connect 6 0 5 0;
#X connect 10 0 15 0;
#X connect 11 0 10 0;
#X connect 13 0 10 1;
#X connect 14 0 43 0;
#X connect 17 0 21 0;
#X connect 18 0 11 0;
#X connect 19 0 13 0;
#X connect 21 0 24 0;
#X connect 22 0 23 0;
#X connect 24 0 20 0;
#X connect 25 0 26 0;
#X connect 25 0 27 0;
#X connect 26 0 21 0;
#X connect 29 0 30 0;
#X connect 30 0 28 0;
#X connect 31 0 30 0;
#X connect 32 0 30 0;
#X connect 33 0 34 0;
#X connect 34 0 35 0;
#X connect 36 0 34 0;
#X connect 37 0 34 0;
#X connect 38 0 31 0;
#X connect 43 0 13 0;
